<svg width="1440" height="727" viewBox="0 0 1440 727" fill="none" xmlns="http://www.w3.org/2000/svg">
<g filter="url(#filter0_d_264_51)">
<path d="M664 597.57H885.5H1271.5H1431.97C1466.26 597.57 1496.34 620.451 1505.5 653.5L1513.7 691.047C1516.5 703.863 1527.85 713 1540.97 713C1557 713 1569.74 699.521 1568.83 683.513L1564.49 606.881C1562.25 567.383 1529.57 536.5 1490.01 536.5L724.611 525.87C669.93 525.11 626 480.566 626 425.879V133.403C626 78.1748 670.772 33.4032 726 33.4032H1548.87C1560.81 33.4032 1570.5 23.7173 1570.5 11.7691C1570.5 -0.23165 1560.73 -9.93921 1548.73 -9.86454L-10.2551 -0.163316C-24.7761 -0.0729551 -36.5 11.7241 -36.5 26.2454L-47.2956 608.507C-47.6825 629.375 -30.8719 646.5 -10 646.5H44H83.5531C105.599 646.5 126.73 637.692 142.25 622.035C157.77 606.378 178.901 597.57 200.947 597.57H258.5H329H392H485.5H664Z" fill="url(#paint0_linear_264_51)" fill-opacity="0.9" shape-rendering="crispEdges"/>
<path d="M1548.71 -12.8643C1562.38 -12.9491 1573.5 -1.8953 1573.5 11.7695C1573.5 25.3743 1562.47 36.4031 1548.87 36.4033H726C672.428 36.4033 629 79.8317 629 133.403V425.879C629 478.925 671.612 522.133 724.653 522.87L1490.05 533.5H1490.05C1531.18 533.521 1565.16 565.638 1567.48 606.711L1571.82 683.344C1572.83 701.073 1558.72 716 1540.97 716C1526.44 716 1513.87 705.881 1510.77 691.687L1502.59 654.222C1493.77 622.515 1464.89 600.571 1431.97 600.57H200.947C179.702 600.57 159.337 609.059 144.381 624.147C128.298 640.373 106.398 649.5 83.5527 649.5H-10C-32.5504 649.5 -50.7128 630.998 -50.2949 608.451L-39.5 26.2451C-39.4998 10.0744 -26.4439 -3.06246 -10.2734 -3.16309L1548.71 -12.8643Z" stroke="#D9D9D9" stroke-opacity="0.5" stroke-width="6" shape-rendering="crispEdges"/>
</g>
<defs>
<filter id="filter0_d_264_51" x="-57.3021" y="-15.865" width="1637.8" height="742.865" filterUnits="userSpaceOnUse" color-interpolation-filters="sRGB">
<feFlood flood-opacity="0" result="BackgroundImageFix"/>
<feColorMatrix in="SourceAlpha" type="matrix" values="0 0 0 0 0 0 0 0 0 0 0 0 0 0 0 0 0 0 127 0" result="hardAlpha"/>
<feOffset dy="4"/>
<feGaussianBlur stdDeviation="2"/>
<feComposite in2="hardAlpha" operator="out"/>
<feColorMatrix type="matrix" values="0 0 0 0 0 0 0 0 0 0 0 0 0 0 0 0 0 0 0.25 0"/>
<feBlend mode="normal" in2="BackgroundImageFix" result="effect1_dropShadow_264_51"/>
<feBlend mode="normal" in="SourceGraphic" in2="effect1_dropShadow_264_51" result="shape"/>
</filter>
<linearGradient id="paint0_linear_264_51" x1="778.5" y1="562.477" x2="770.64" y2="13.1057" gradientUnits="userSpaceOnUse">
<stop stop-color="#8F9C67"/>
<stop offset="0.774038" stop-color="#97A767"/>
</linearGradient>
</defs>
</svg>
